<?xml version="1.0" standalone="no"?>
<!DOCTYPE svg PUBLIC "-//W3C//DTD SVG 20010904//EN"
 "http://www.w3.org/TR/2001/REC-SVG-20010904/DTD/svg10.dtd">
<svg version="1.0" xmlns="http://www.w3.org/2000/svg"
 width="70.000000pt" height="70.000000pt" viewBox="0 0 70.000000 70.000000"
 preserveAspectRatio="xMidYMid meet">
<metadata>
Created by potrace 1.11, written by Peter Selinger 2001-2013
</metadata>
<g transform="translate(0.000000,70.000000) scale(0.100000,-0.100000)"
fill="#000000" stroke="none">
<path d="M114 481 c-73 -44 -72 -192 1 -249 33 -26 92 -29 135 -7 28 14 30 20
30 70 l0 55 -50 0 c-38 0 -50 -4 -50 -15 0 -10 10 -15 30 -15 27 0 30 -3 30
-34 0 -52 -58 -64 -106 -23 -55 48 -40 188 22 203 32 8 74 -11 81 -36 6 -24
43 -27 43 -4 0 8 -13 29 -29 45 -35 35 -89 39 -137 10z"/>
<path d="M340 356 c0 -138 1 -146 20 -146 18 0 20 8 22 107 l3 108 41 -105
c31 -77 46 -105 59 -105 13 0 28 28 59 105 l41 105 3 -108 c2 -99 4 -107 22
-107 19 0 20 8 20 146 l0 145 -27 -3 c-24 -3 -31 -14 -65 -98 -21 -52 -41
-103 -46 -114 -6 -14 -18 9 -53 95 -40 103 -47 114 -72 117 l-27 3 0 -145z"/>
</g>
</svg>
